<svg width="24" height="24" viewBox="0 0 24 24" fill="none" xmlns="http://www.w3.org/2000/svg">
<g clip-path="url(#clip0_262_886)">
<path d="M22.3847 8.72736C21.2427 8.18744 20.037 7.79408 18.7964 7.55663C17.8637 7.37209 16.9187 7.25665 15.9691 7.21127C15.6418 6.38015 15.2504 5.57577 14.7983 4.80541C14.1977 3.69526 13.4602 2.66478 12.6032 1.73809C12.3352 1.48663 11.9815 1.34668 11.6139 1.34668C11.2464 1.34668 10.8927 1.48663 10.6247 1.73809C9.76796 2.67359 9.03062 3.71177 8.42955 4.82883C7.99883 5.60912 7.61949 6.41669 7.29394 7.24639C6.39613 7.29454 5.50356 7.41394 4.62467 7.60346C3.38423 7.83465 2.17705 8.21803 1.03052 8.74492C0.714353 8.92845 0.478694 9.22409 0.37027 9.57321C0.261846 9.92234 0.288574 10.2995 0.445156 10.6298C1.05983 11.731 1.80899 12.7515 2.6754 13.6679C3.29438 14.3282 3.95526 14.9481 4.65394 15.5235C4.38895 16.4525 4.20292 17.4022 4.09784 18.3625C3.9421 19.6123 3.9421 20.8766 4.09784 22.1264C4.16645 22.4888 4.37042 22.8114 4.66832 23.0289C4.96621 23.2463 5.3357 23.3422 5.70174 23.2971C6.93778 23.0563 8.13916 22.6631 9.27833 22.1264C10.0849 21.7419 10.8669 21.3079 11.6198 20.8269C12.3711 21.3106 13.1533 21.7447 13.9613 22.1264C15.1004 22.6631 16.3018 23.0563 17.5378 23.2971C17.9039 23.3422 18.2734 23.2463 18.5713 23.0289C18.8692 22.8114 19.0731 22.4888 19.1417 22.1264C19.2975 20.8766 19.2975 19.6123 19.1417 18.3625C19.0458 17.4433 18.8775 16.5332 18.6383 15.6405C19.4045 15.0396 20.1156 14.3716 20.7632 13.6444C21.6289 12.7261 22.3798 11.7059 22.9993 10.6064C23.1546 10.2737 23.1775 9.89437 23.0633 9.54541C22.9492 9.19645 22.7065 8.90399 22.3847 8.72736Z" fill="#FFE100"/>
<path d="M12.5977 4.04492C13.1598 4.83015 13.6459 5.66709 14.0494 6.54443" stroke="white" stroke-miterlimit="10" stroke-linecap="round"/>
</g>
<defs>
<clipPath id="clip0_262_886">
<rect width="24" height="24" fill="white"/>
</clipPath>
</defs>
</svg>
