<svg width="55" height="57" viewBox="0 0 55 57" fill="none" xmlns="http://www.w3.org/2000/svg">
<mask id="path-1-inside-1_501_671" fill="white">
<path d="M54.2031 56.8369L0.000228882 56.8369L0.00022382 -0.000334856L44.2031 -0.00033865C49.726 -0.000339124 54.2031 4.47681 54.2031 9.99966L54.2031 56.8369Z"/>
</mask>
<path d="M54.2031 56.8369L0.000228882 56.8369L54.2031 56.8369ZM0.000223687 -1.50033L44.2031 -1.50034C50.5544 -1.50034 55.7031 3.64838 55.7031 9.99966L52.7031 9.99966C52.7031 5.30524 48.8975 1.49966 44.2031 1.49966L0.000223954 1.49967L0.000223687 -1.50033ZM44.2031 -1.50034C50.5544 -1.50034 55.7031 3.64838 55.7031 9.99966L55.7031 56.8369L52.7031 56.8369L52.7031 9.99966C52.7031 5.30524 48.8975 1.49966 44.2031 1.49966L44.2031 -1.50034ZM0.000228882 56.8369L0.00022382 -0.000334856L0.000228882 56.8369Z" fill="url(#paint0_linear_501_671)" mask="url(#path-1-inside-1_501_671)"/>
<defs>
<linearGradient id="paint0_linear_501_671" x1="27.1017" y1="56.8369" x2="27.1017" y2="-0.000337182" gradientUnits="userSpaceOnUse">
<stop offset="0.389423" stop-color="#7BFDFD"/>
<stop offset="0.615385" stop-color="#2884C7"/>
</linearGradient>
</defs>
</svg>
