<svg width="1920" height="970" viewBox="0 0 1920 970" fill="none" xmlns="http://www.w3.org/2000/svg">
<g opacity="0.5" filter="url(#filter0_f_342_1557)">
<path d="M1924.85 878.796C1730.03 782.934 1403.03 705.218 1002.68 688.82C303.077 660.164 -44.3887 638.305 -221.526 552.201L-194.355 489.777L-179.626 281.855C74.6818 407.879 438.211 478.942 1121.25 490.743C1547.31 502.145 1886.38 563.404 2014.58 620.317L1924.85 878.796Z" fill="url(#paint0_linear_342_1557)"/>
</g>
<g opacity="0.5" filter="url(#filter1_f_342_1557)">
<path d="M-44.8442 167.6C130.282 269.624 310.309 342.78 788.569 388.762C1343.79 442.144 1891.36 431.679 2050.74 523.607L2039.86 752.251L1933.93 735.104C1830.8 675.129 1106.41 653.499 446.768 552.044C276.562 525.866 198.051 534.984 -141.171 399.761L-44.8442 167.6Z" fill="url(#paint1_linear_342_1557)"/>
</g>
<defs>
<filter id="filter0_f_342_1557" x="-312.325" y="191.055" width="2417.7" height="778.54" filterUnits="userSpaceOnUse" color-interpolation-filters="sRGB">
<feFlood flood-opacity="0" result="BackgroundImageFix"/>
<feBlend mode="normal" in="SourceGraphic" in2="BackgroundImageFix" result="shape"/>
<feGaussianBlur stdDeviation="45.4" result="effect1_foregroundBlur_342_1557"/>
</filter>
<filter id="filter1_f_342_1557" x="-252.772" y="55.9996" width="2415.11" height="807.851" filterUnits="userSpaceOnUse" color-interpolation-filters="sRGB">
<feFlood flood-opacity="0" result="BackgroundImageFix"/>
<feBlend mode="normal" in="SourceGraphic" in2="BackgroundImageFix" result="shape"/>
<feGaussianBlur stdDeviation="55.8" result="effect1_foregroundBlur_342_1557"/>
</filter>
<linearGradient id="paint0_linear_342_1557" x1="1957.62" y1="704.565" x2="-124.253" y2="295.148" gradientUnits="userSpaceOnUse">
<stop offset="0.0187462" stop-color="#FC9924"/>
<stop offset="1" stop-color="#FCD645"/>
</linearGradient>
<linearGradient id="paint1_linear_342_1557" x1="2269.81" y1="665.527" x2="-710.946" y2="256.908" gradientUnits="userSpaceOnUse">
<stop stop-color="#7BFDFD"/>
<stop offset="0.716346" stop-color="#2884C7"/>
</linearGradient>
</defs>
</svg>
